<svg xmlns="http://www.w3.org/2000/svg" xmlns:xlink="http://www.w3.org/1999/xlink" width="27.268" height="27.268" viewBox="0 0 27.268 27.268">
  <defs>
    <clipPath id="clip-path">
      <rect id="Rectangle_32" data-name="Rectangle 32" width="27.268" height="27.268" transform="translate(3965.302 -686.211)" fill="none"/>
    </clipPath>
    <clipPath id="clip-path-2">
      <rect id="Rectangle_30" data-name="Rectangle 30" width="27.265" height="27.267" transform="translate(3965.306 -686.21)" fill="none"/>
    </clipPath>
  </defs>
  <g id="Group_27" data-name="Group 27" transform="translate(-3965.302 686.211)">
    <g id="Group_26" data-name="Group 26" clip-path="url(#clip-path)">
      <g id="Group_23" data-name="Group 23">
        <g id="Group_22" data-name="Group 22" clip-path="url(#clip-path-2)">
          <path id="Path_56" data-name="Path 56" d="M3992.571-672.577a13.634,13.634,0,0,0-13.634-13.634,13.635,13.635,0,0,0-13.635,13.634,13.638,13.638,0,0,0,11.5,13.469v-9.528h-3.461v-3.941h3.461v-3c0-3.418,2.036-5.3,5.15-5.3a20.985,20.985,0,0,1,3.052.266v3.356h-1.719a1.971,1.971,0,0,0-2.222,2.129v2.557h3.781l-.6,3.941h-3.177v9.528a13.638,13.638,0,0,0,11.5-13.469" fill="#3471b5"/>
        </g>
      </g>
      <g id="Group_25" data-name="Group 25">
        <g id="Group_24" data-name="Group 24" clip-path="url(#clip-path)">
          <path id="Path_57" data-name="Path 57" d="M3984.244-668.636l.6-3.941h-3.781v-2.557a1.971,1.971,0,0,1,2.222-2.129h1.719v-3.356a20.985,20.985,0,0,0-3.052-.266c-3.114,0-5.15,1.887-5.15,5.3v3h-3.461v3.941h3.461v9.528a13.738,13.738,0,0,0,2.131.166,13.732,13.732,0,0,0,2.13-.166v-9.528Z" fill="#fff"/>
        </g>
      </g>
    </g>
  </g>
</svg>
