<svg id="Linkedin" xmlns="http://www.w3.org/2000/svg" xmlns:xlink="http://www.w3.org/1999/xlink" width="27.268" height="27.268" viewBox="0 0 27.268 27.268">
  <defs>
    <clipPath id="clip-path">
      <rect id="Rectangle_29" data-name="Rectangle 29" width="27.268" height="27.268" transform="translate(3926.839 -686.211)" fill="none"/>
    </clipPath>
  </defs>
  <g id="Group_21" data-name="Group 21" transform="translate(-3926.839 686.211)">
    <g id="Group_20" data-name="Group 20" clip-path="url(#clip-path)">
      <g id="Group_19" data-name="Group 19">
        <g id="Group_18" data-name="Group 18" clip-path="url(#clip-path)">
          <path id="Path_55" data-name="Path 55" d="M3951.64-686.211H3929.3a2.468,2.468,0,0,0-2.467,2.467v22.335a2.467,2.467,0,0,0,2.467,2.466h22.335a2.466,2.466,0,0,0,2.467-2.466v-22.335a2.467,2.467,0,0,0-2.467-2.467M3935.014-662.9h-4.133v-13.076h4.133Zm-2.02-14.788a2.4,2.4,0,0,1-2.4-2.4,2.4,2.4,0,0,1,2.4-2.4,2.4,2.4,0,0,1,2.4,2.4,2.4,2.4,0,0,1-2.4,2.4m17.175,14.788h-4.1v-5.714c0-.9.366-4.1-2.239-4.1-2.211,0-2.149,2.251-2.231,3.182l.02,6.636h-4.129v-13.076h3.945l-.04,1.789s.081.011.1-.014a4.082,4.082,0,0,1,3.922-2.027c5.251,0,4.735,4.728,4.735,7.423Z" fill="#0066ab"/>
        </g>
      </g>
    </g>
  </g>
</svg>
