<svg xmlns="http://www.w3.org/2000/svg" xmlns:xlink="http://www.w3.org/1999/xlink" width="25.938" height="25.938" viewBox="0 0 25.938 25.938">
  <defs>
    <clipPath id="clip-path">
      <rect id="Rectangle_34" data-name="Rectangle 34" width="25.938" height="25.938" transform="translate(4004.431 -686.211)" fill="none"/>
    </clipPath>
  </defs>
  <g id="Group_31" data-name="Group 31" transform="translate(-4004.431 686.211)">
    <g id="Group_30" data-name="Group 30" clip-path="url(#clip-path)">
      <g id="Group_29" data-name="Group 29">
        <g id="Group_28" data-name="Group 28" clip-path="url(#clip-path)">
          <path id="Path_58" data-name="Path 58" d="M4030.37-673.242a12.969,12.969,0,0,1-12.969,12.969,12.969,12.969,0,0,1-12.969-12.969,12.969,12.969,0,0,1,12.969-12.969,12.97,12.97,0,0,1,12.969,12.969" fill="#218cce"/>
          <path id="Path_59" data-name="Path 59" d="M4015.028-666.4a8.835,8.835,0,0,0,8.9-8.9q0-.2-.009-.4a6.372,6.372,0,0,0,1.56-1.618,6.277,6.277,0,0,1-1.8.492,3.137,3.137,0,0,0,1.375-1.73,6.261,6.261,0,0,1-1.985.759,3.123,3.123,0,0,0-2.282-.988,3.128,3.128,0,0,0-3.127,3.127,3.092,3.092,0,0,0,.081.712,8.873,8.873,0,0,1-6.444-3.266,3.116,3.116,0,0,0-.424,1.571,3.124,3.124,0,0,0,1.392,2.6,3.11,3.11,0,0,1-1.416-.391v.039a3.129,3.129,0,0,0,2.508,3.066,3.152,3.152,0,0,1-.824.11,3.085,3.085,0,0,1-.588-.057,3.131,3.131,0,0,0,2.921,2.172,6.276,6.276,0,0,1-3.883,1.338,6.344,6.344,0,0,1-.746-.043,8.858,8.858,0,0,0,4.793,1.4" fill="#fff"/>
        </g>
      </g>
    </g>
  </g>
</svg>
