<svg xmlns="http://www.w3.org/2000/svg" viewBox="0 0 89.26 114.4"><defs><style>.cls-1{fill:#fff;}</style></defs><g id="Layer_2" data-name="Layer 2"><g id="logo_svg" data-name="logo svg"><path id="Path_52" data-name="Path 52" class="cls-1" d="M62.81,45.43c-.32,0-3.07-.25-3-.23a48,48,0,0,0-8.81.3V16.78c12,2.27,15.84,10.94,16.38,12.57C68,31.22,68,41.82,68,41.82h1.25V15.93l-1.1-.16s-.31,4.06-1.56,5-1.56.62-7.18-3.12A23.16,23.16,0,0,0,51,14.54V8.12a3.91,3.91,0,0,1,3.91-3.91h27c3.43,0,4,4.06,4,4.06l2,8.9h1.28C86.43,4.37,87.44,0,87.44,0h-1c-1.37,2-4.27,2.18-4.27,2.18H7.07A5.24,5.24,0,0,1,2.8,0h-1S2.8,4.37,0,17.17H1.28l2-8.9S3.9,4.21,7.33,4.21h27a3.91,3.91,0,0,1,3.91,3.91v6.61c-12.3,3.15-21.85,14.79-21.85,27.58a24,24,0,0,0,6.19,16.53,32.31,32.31,0,0,0-9,24c0,16.61,13.39,31.59,34.3,31.59,18.41,0,31.52-13.1,31.52-31.52,0-14.67-15.3-22.47-15.3-22.47S58,57.51,51,54.09v-8a44.84,44.84,0,0,1,6.55-.41A47.34,47.34,0,0,1,76.75,50,4.67,4.67,0,0,1,79,56.2a4.37,4.37,0,0,1-.45.78,5.93,5.93,0,1,0,10.67,3.56C89.24,54,81.11,47.25,62.81,45.43ZM38.21,17.31V47.68c-2.13-1.11-4-2.1-5.31-2.88a16.14,16.14,0,0,1-7.4-8.9,9.86,9.86,0,0,1-.22-5.33c1.27-5.5,6.08-11,12.93-13.26ZM64.11,81c10,4.68,9,10.61,9,10.61,0,19.66-25.28,20.6-25.28,20.6-18.41,0-33.26-11.55-33.26-29.41,0-10.38,3.37-18,8.36-23.5a20.89,20.89,0,0,0,4.93,3.9l10.3,5.13V90.18a3.91,3.91,0,0,1-3.91,3.91H26.17v1.56H63V94.09H54.92A3.91,3.91,0,0,1,51,90.19h0V74.66c5.1,2.51,9.93,4.85,13.11,6.34Z"/></g></g></svg>