<svg id="Logo_for_a_footer" data-name="Logo for a footer" xmlns="http://www.w3.org/2000/svg" width="459" height="107.169" viewBox="0 0 459 107.169">
  <g id="Group_3" data-name="Group 3" transform="translate(123.827 20.292)">
    <g id="Group_1" data-name="Group 1" transform="translate(0 0)">
      <path id="Path_1" data-name="Path 1" d="M821.461,230.48v27.356a2.912,2.912,0,0,0,.909,2.051,2.866,2.866,0,0,0,2.074.839H825l.047.466H810.881v-.466h.606a2.812,2.812,0,0,0,2.027-.839,3.06,3.06,0,0,0,.956-2v-27.4h-6.292a4.477,4.477,0,0,0-4.661,4.754v.559h-.466v-8.109a15.43,15.43,0,0,0,5.5.839h18.781a19.474,19.474,0,0,0,3.146-.28,11.58,11.58,0,0,0,2.353-.559v8.109h-.466v-.559a4.3,4.3,0,0,0-2.19-4.1,5.119,5.119,0,0,0-2.47-.653Z" transform="translate(-803.052 -227.684)"/>
      <path id="Path_2" data-name="Path 2" d="M1005.209,264.424a2.64,2.64,0,0,0,1.864-.606,3.4,3.4,0,0,0,1.119-2.284V249.651h-15.1v11.837a2.789,2.789,0,0,0,.885,2.074,2.9,2.9,0,0,0,2.1.862h.559l.047.466H982.513v-.466h.606a2.826,2.826,0,0,0,2.074-.862,3,3,0,0,0,.909-2.074V235.67a3,3,0,0,0-.909-2.074,2.829,2.829,0,0,0-2.074-.862h-.606v-.466h14.167l-.047.466h-.559a2.9,2.9,0,0,0-2.1.862,2.791,2.791,0,0,0-.885,2.074v11.977h15.1V235.67a3,3,0,0,0-.909-2.074,2.829,2.829,0,0,0-2.074-.862h-.606v-.466h14.167v.466h-.606a2.9,2.9,0,0,0-2.1.862,2.792,2.792,0,0,0-.885,2.074v25.818a2.79,2.79,0,0,0,.885,2.074,2.9,2.9,0,0,0,2.1.862h.606v.466H1004.6v-.466Z" transform="translate(-947.84 -231.382)"/>
      <path id="Path_3" data-name="Path 3" d="M1202.863,260.921a2.826,2.826,0,0,0,2.074-.862,3,3,0,0,0,.909-2.074V232.027a2.594,2.594,0,0,0-.7-1.771,3.387,3.387,0,0,0-2.284-1.026h-.606v-.466h17.85a16.969,16.969,0,0,0,3.775-.35,16,16,0,0,0,1.818-.489v8.156l-.466-.047v-.513a4.327,4.327,0,0,0-2.144-4.1,5.025,5.025,0,0,0-2.424-.652h-7.829V244.33h6.152a3.968,3.968,0,0,0,2.843-1.188,3.873,3.873,0,0,0,1.118-2.82V239.9h.466v10.766h-.466V250.3a3.863,3.863,0,0,0-3.868-4.008h-6.245v13.1h6.105a8.52,8.52,0,0,0,5.709-1.958,11.568,11.568,0,0,0,3.425-5.546h.466l-2.144,9.507h-24.141v-.466Z" transform="translate(-1125.129 -227.879)"/>
      <path id="Path_4" data-name="Path 4" d="M1440.819,257.831a10.831,10.831,0,0,1,1.445-5.732h.419a5.977,5.977,0,0,0-.046.746,7.846,7.846,0,0,0,2.307,5.616,8.345,8.345,0,0,0,6.315,2.4,7.271,7.271,0,0,0,4.87-1.491,4.749,4.749,0,0,0,1.748-3.775,3.768,3.768,0,0,0-.862-2.424,12.491,12.491,0,0,0-2.866-2.376l-8.109-5.36q-4.521-3.029-4.521-7.457a4.7,4.7,0,0,1,.093-.932,8.326,8.326,0,0,1,2.866-5.919,10.211,10.211,0,0,1,6.921-2.237,53.313,53.313,0,0,1,6.338.466h2.936l-.606,6.851h-.466a4.78,4.78,0,0,0-1.794-3.892,7.313,7.313,0,0,0-4.777-1.468q-3.635,0-5.266,2.237a3.477,3.477,0,0,0-.839,2.144,3.656,3.656,0,0,0,.419,1.818,8.139,8.139,0,0,0,2.843,2.61l8.9,5.779q4.195,2.75,4.194,7.177a9.03,9.03,0,0,1-3.379,7.573,14.2,14.2,0,0,1-8.971,2.633,21.137,21.137,0,0,1-5.849-.769,8.744,8.744,0,0,1-3.938-2.074A6.214,6.214,0,0,1,1440.819,257.831Z" transform="translate(-1317.599 -228.657)"/>
      <path id="Path_5" data-name="Path 5" d="M1597.02,233.457q4.963-4.567,13.375-4.567t13.375,4.567q4.964,4.568,4.964,12.4t-4.964,12.4q-4.963,4.567-13.375,4.567t-13.375-4.567q-4.964-4.567-4.963-12.4T1597.02,233.457Zm5.546,23.372a9.6,9.6,0,0,0,15.636,0q2.889-4.03,2.889-10.975t-2.889-10.975a9.6,9.6,0,0,0-15.636,0q-2.866,4.031-2.866,10.975T1602.566,256.829Z" transform="translate(-1439.617 -228.657)"/>
      <path id="Path_6" data-name="Path 6" d="M1844.676,232.734h-.792a2.42,2.42,0,0,0-1.678.629,2.169,2.169,0,0,0-.746,1.561V253.1a11.841,11.841,0,0,1-3.589,9.088q-3.589,3.355-9.833,3.356-7.365,0-11.278-3.285a11.25,11.25,0,0,1-3.915-9.111V235.064a2.266,2.266,0,0,0-1.258-2.05,2.669,2.669,0,0,0-1.211-.28h-.746v-.466h13.422v.466h-.746a2.481,2.481,0,0,0-1.724.629,2.215,2.215,0,0,0-.746,1.608v17.8a11.8,11.8,0,0,0,2.423,7.829,8.23,8.23,0,0,0,6.665,2.89,8.605,8.605,0,0,0,6.711-2.727,10.758,10.758,0,0,0,2.517-7.387V234.971a2.241,2.241,0,0,0-1.258-1.958,2.673,2.673,0,0,0-1.212-.28h-.746v-.466h9.74Z" transform="translate(-1615.154 -231.382)"/>
      <path id="Path_7" data-name="Path 7" d="M2030.764,234.318h-2.144v27.17a2.993,2.993,0,0,0,.909,2.074,2.825,2.825,0,0,0,2.074.862h.605v.466h-14.167v-.466h.606a2.832,2.832,0,0,0,2.563-1.445,3.252,3.252,0,0,0,.419-1.445V235.67a3,3,0,0,0-.909-2.074,2.828,2.828,0,0,0-2.074-.862h-.606v-.466h15.985a14.118,14.118,0,0,1,7.643,1.957,7,7,0,0,1,2.517,2.726,9.7,9.7,0,0,1,.932,4.567,8.93,8.93,0,0,1-1.957,5.429,7.688,7.688,0,0,1-5.686,2.983,9.218,9.218,0,0,1,4.754,4.1q5.033,8.063,7.456,9.6a5.977,5.977,0,0,0,3.029.792v.466h-4.567a18.248,18.248,0,0,1-6.734-1.072,8.34,8.34,0,0,1-4.218-3.775q-.886-1.538-3.868-7.969-1.306-2.842-3.169-3.122v-.466h1.445a5.843,5.843,0,0,0,3.7-1.258,6.6,6.6,0,0,0,2.167-4.1,8.828,8.828,0,0,0,.187-1.538q0-3.821-1.538-5.523a5.244,5.244,0,0,0-3.961-1.748Z" transform="translate(-1783.299 -231.382)"/>
      <path id="Path_8" data-name="Path 8" d="M2222.3,262.794q-9-.024-14.121-4.544t-5.126-12.4q0-7.875,5.08-12.42t13.935-4.544a24.9,24.9,0,0,1,11.6,2.517l.093,8.016h-.373q-2.376-8.574-10.859-8.575a10.541,10.541,0,0,0-8.692,3.985q-3.192,3.985-3.192,10.882t3.052,10.952a10.174,10.174,0,0,0,8.272,4.194q5.405,0,8.249-2.7,2.888-2.8,4.008-9.6h.373l.466,8.016Q2231.3,262.818,2222.3,262.794Z" transform="translate(-1932.566 -228.657)"/>
      <path id="Path_9" data-name="Path 9" d="M2402.42,260.921a2.826,2.826,0,0,0,2.074-.862,3,3,0,0,0,.909-2.074V232.027a2.593,2.593,0,0,0-.7-1.771,3.385,3.385,0,0,0-2.283-1.026h-.606v-.466h17.849a16.964,16.964,0,0,0,3.775-.35,16,16,0,0,0,1.818-.489v8.156l-.467-.047v-.513a4.326,4.326,0,0,0-2.144-4.1,5.025,5.025,0,0,0-2.424-.652h-7.829V244.33h6.152a3.967,3.967,0,0,0,2.843-1.188,3.872,3.872,0,0,0,1.118-2.82V239.9h.466v10.766h-.466V250.3a3.862,3.862,0,0,0-3.868-4.008h-6.245v13.1h6.105a8.519,8.519,0,0,0,5.709-1.958,11.564,11.564,0,0,0,3.426-5.546h.466l-2.144,9.507h-24.141v-.466Z" transform="translate(-2092.926 -227.879)"/>
    </g>
    <g id="Group_2" data-name="Group 2" transform="translate(81.562 53.563)">
      <path id="Path_10" data-name="Path 10" d="M1232.052,507.045h-5.187V511.3h4.639v1.37h-4.639v4.383h5.187v1.37H1225.2V505.675h6.849Z" transform="translate(-1225.204 -505.529)"/>
      <path id="Path_11" data-name="Path 11" d="M1275.358,505.769v11.378h4.456V518.5H1273.7v-12.73Z" transform="translate(-1264.327 -505.605)"/>
      <path id="Path_12" data-name="Path 12" d="M1321.381,507.045h-5.187V511.3h4.639v1.37h-4.639v4.383h5.187v1.37h-6.849V505.675h6.849Z" transform="translate(-1297.273 -505.529)"/>
      <path id="Path_13" data-name="Path 13" d="M1367.6,505.769h1.754l-4.8,12.73h-1.918l-4.8-12.73h1.772l4,10.976Z" transform="translate(-1332.202 -505.605)"/>
      <path id="Path_14" data-name="Path 14" d="M1431.095,515.973h-5.552l-1.023,2.831h-1.754l4.6-12.657h1.918l4.584,12.657h-1.753Zm-2.776-7.78-2.3,6.428h4.6Z" transform="translate(-1384.597 -505.91)"/>
      <path id="Path_15" data-name="Path 15" d="M1486.575,505.769h8.62v1.351h-3.47V518.5h-1.662V507.12h-3.488Z" transform="translate(-1436.077 -505.605)"/>
      <path id="Path_16" data-name="Path 16" d="M1548.626,507.045h-5.187V511.3h4.639v1.37h-4.639v4.383h5.187v1.37h-6.849V505.675h6.849Z" transform="translate(-1480.614 -505.529)"/>
      <path id="Path_17" data-name="Path 17" d="M1610.027,505.769h1.844l3.141,6.447,3.141-6.447H1620l-4.146,7.926v4.8h-1.662v-4.8Z" transform="translate(-1535.677 -505.605)"/>
      <path id="Path_18" data-name="Path 18" d="M1673.894,518.016a6.5,6.5,0,1,1,6.392-6.5A6.279,6.279,0,0,1,1673.894,518.016Zm0-1.442c2.684,0,4.694-1.954,4.694-5.059,0-3.123-2.01-5.059-4.694-5.059s-4.694,1.936-4.694,5.059C1669.2,514.62,1671.209,516.574,1673.894,516.574Z" transform="translate(-1582.048 -504.995)"/>
      <path id="Path_19" data-name="Path 19" d="M1744.827,505.769h1.662v8.054c0,2.338,1.26,3.342,3.141,3.342s3.123-1,3.123-3.342v-8.054h1.662V513.8a4.794,4.794,0,1,1-9.588,0Z" transform="translate(-1644.433 -505.605)"/>
      <path id="Path_20" data-name="Path 20" d="M1812.932,505.769c2.995,0,4.42,1.662,4.42,3.744a3.59,3.59,0,0,1-3.032,3.653l3.2,5.333h-1.991l-3.032-5.205h-2.009V518.5h-1.662v-12.73Zm0,1.37h-2.448v4.821h2.448c1.881,0,2.7-1.023,2.7-2.447C1815.635,508.07,1814.831,507.139,1812.932,507.139Z" transform="translate(-1696.065 -505.605)"/>
      <path id="Path_21" data-name="Path 21" d="M1894.047,517.94c-2.557,0-4.365-1.424-4.4-3.525h1.772a2.357,2.357,0,0,0,2.63,2.118c1.607,0,2.556-.913,2.556-2.118,0-3.433-6.885-1.242-6.885-5.972,0-2.1,1.7-3.525,4.219-3.525,2.429,0,4.018,1.333,4.219,3.269h-1.826a2.306,2.306,0,0,0-2.466-1.845c-1.37-.036-2.447.676-2.447,2.046,0,3.287,6.866,1.242,6.866,5.954C1898.283,516.151,1896.8,517.94,1894.047,517.94Z" transform="translate(-1761.272 -504.919)"/>
      <path id="Path_22" data-name="Path 22" d="M1942.96,505.769h8.62v1.351h-3.47V518.5h-1.662V507.12h-3.488Z" transform="translate(-1804.286 -505.605)"/>
      <path id="Path_23" data-name="Path 23" d="M1992.679,505.769h1.844l3.141,6.447,3.141-6.447h1.844L1998.5,513.7v4.8h-1.662v-4.8Z" transform="translate(-1844.399 -505.605)"/>
      <path id="Path_24" data-name="Path 24" d="M2055.03,505.769v11.378h4.456V518.5h-6.118v-12.73Z" transform="translate(-1893.363 -505.605)"/>
      <path id="Path_25" data-name="Path 25" d="M2101.052,507.045h-5.187V511.3h4.639v1.37h-4.639v4.383h5.187v1.37H2094.2V505.675h6.849Z" transform="translate(-1926.309 -505.529)"/>
    </g>
  </g>
  <path id="Path_26" data-name="Path 26" d="M220.995,165.22c-.294-.03-2.874-.235-2.794-.222a45.127,45.127,0,0,0-8.258.281v-26.9c11.252,2.125,14.842,10.247,15.349,11.769.585,1.754.585,11.678.585,11.678h1.169V137.58l-1.023-.146s-.292,3.8-1.462,4.678-1.462.585-6.724-2.924a21.734,21.734,0,0,0-7.894-2.906v-6.02A3.662,3.662,0,0,1,213.6,126.6h25.282c3.216,0,3.8,3.8,3.8,3.8l1.866,8.333h1.2c-2.631-11.987-1.69-16.08-1.69-16.08h-.941a5.679,5.679,0,0,1-4,2.047H168.772a4.931,4.931,0,0,1-4-2.047h-.941s.941,4.093-1.69,16.08h1.2l1.866-8.333s.585-3.8,3.8-3.8h25.282a3.662,3.662,0,0,1,3.662,3.662v6.2c-11.524,2.943-20.466,13.852-20.466,25.827a22.475,22.475,0,0,0,5.8,15.492,30.288,30.288,0,0,0-8.4,22.452c0,15.56,12.544,29.593,32.133,29.593,17.25,0,29.529-12.279,29.529-29.529,0-13.741-14.326-21.05-14.326-21.05s-5.724-2.711-12.28-5.917v-7.44a41.289,41.289,0,0,1,6.14-.384,44.372,44.372,0,0,1,17.96,4.006,4.369,4.369,0,0,1,1.72,6.526,5.555,5.555,0,1,0,10,3.338C245.757,173.277,238.136,166.922,220.995,165.22Zm-23.039-26.348V167.32c-2-1.038-3.724-1.969-4.97-2.7a15.084,15.084,0,0,1-6.933-8.333,9.268,9.268,0,0,1-.21-4.992C187.031,146.148,191.54,140.988,197.955,138.872Zm24.267,59.667c9.356,4.386,8.479,9.94,8.479,9.94,0,18.419-23.682,19.3-23.682,19.3-17.25,0-31.161-10.818-31.161-27.547,0-9.726,3.155-16.847,7.838-22.012a19.6,19.6,0,0,0,4.611,3.657s4.131,2.065,9.648,4.8V207.14a3.662,3.662,0,0,1-3.662,3.662h-7.615v1.462h34.542V210.8H213.6a3.662,3.662,0,0,1-3.662-3.662V192.6C214.721,194.945,219.242,197.143,222.222,198.539Z" transform="translate(-162.14 -122.653)"/>
</svg>
