<svg xmlns="http://www.w3.org/2000/svg" viewBox="0 0 222.51 44.24"><defs><style>.cls-1{fill:#fff;}</style></defs><g id="Layer_2" data-name="Layer 2"><g id="logo_svg" data-name="logo svg"><g id="symbol"><path id="Path_27" data-name="Path 27" class="cls-1" d="M12.22,1.86V20a1.92,1.92,0,0,0,.6,1.36,2,2,0,0,0,1.37.56h.38l0,.3H5.19v-.3h.4a1.9,1.9,0,0,0,1.35-.56,2,2,0,0,0,.63-1.33V1.86H3.4A3,3,0,0,0,.3,4.7c0,.1,0,.21,0,.31v.37H0V0A10.29,10.29,0,0,0,3.65.56H16.12A13.31,13.31,0,0,0,18.21.37,7.7,7.7,0,0,0,19.77,0V5.38h-.31V5A2.86,2.86,0,0,0,18,2.29a3.37,3.37,0,0,0-1.64-.43Z"/><path id="Path_28" data-name="Path 28" class="cls-1" d="M38.08,21.94a1.8,1.8,0,0,0,1.24-.4A2.28,2.28,0,0,0,40.06,20V12.13H30V20a1.82,1.82,0,0,0,.59,1.38,1.94,1.94,0,0,0,1.39.57h.37l0,.31H23v-.31h.4a1.88,1.88,0,0,0,1.38-.57,2,2,0,0,0,.6-1.38V2.85a2,2,0,0,0-.6-1.38A1.88,1.88,0,0,0,23.41.9H23V.59h9.41l0,.31H32a1.9,1.9,0,0,0-1.39.57A1.86,1.86,0,0,0,30,2.85v8h10v-8a2,2,0,0,0-.6-1.38A1.88,1.88,0,0,0,38.08.9h-.4V.59h9.41V.9h-.4a1.92,1.92,0,0,0-1.4.57,1.82,1.82,0,0,0-.58,1.38V20a1.81,1.81,0,0,0,.58,1.37,1.92,1.92,0,0,0,1.4.57h.4v.31H37.68v-.31Z"/><path id="Path_29" data-name="Path 29" class="cls-1" d="M51.6,21.94A1.89,1.89,0,0,0,53,21.36a2,2,0,0,0,.6-1.37V2.76a1.72,1.72,0,0,0-.47-1.18A2.23,2.23,0,0,0,51.6.9h-.4V.59H63.05a11,11,0,0,0,2.5-.23c.41-.09.81-.2,1.21-.33V5.45l-.31,0V5.07A2.88,2.88,0,0,0,65,2.35a3.29,3.29,0,0,0-1.61-.43h-5.2v9H62.3a2.64,2.64,0,0,0,1.89-.79,2.56,2.56,0,0,0,.74-1.87V8h.31v7.15h-.31v-.25a2.56,2.56,0,0,0-2.46-2.66H58.22v8.69h4.05a5.68,5.68,0,0,0,3.79-1.3,7.62,7.62,0,0,0,2.27-3.68h.31l-1.42,6.31h-16v-.31Z"/><path id="Path_30" data-name="Path 30" class="cls-1" d="M81.8,19.37a7.19,7.19,0,0,1,1-3.81H83a4.21,4.21,0,0,0,0,.5,5.23,5.23,0,0,0,1.54,3.73,5.54,5.54,0,0,0,4.19,1.59,4.81,4.81,0,0,0,3.23-1,3.16,3.16,0,0,0,1.16-2.51,2.47,2.47,0,0,0-.57-1.6,8.24,8.24,0,0,0-1.9-1.58l-5.38-3.56a5.83,5.83,0,0,1-3-4.95,3.18,3.18,0,0,1,.06-.62,5.52,5.52,0,0,1,1.9-3.93A6.76,6.76,0,0,1,88.82.16,34.92,34.92,0,0,1,93,.47h2L94.58,5h-.31a3.19,3.19,0,0,0-1.19-2.58,4.82,4.82,0,0,0-3.17-1,4,4,0,0,0-3.5,1.48,2.34,2.34,0,0,0-.56,1.42,2.42,2.42,0,0,0,.28,1.21A5.41,5.41,0,0,0,88,7.3l5.9,3.84a5.49,5.49,0,0,1,2.79,4.76,6,6,0,0,1-2.24,5,9.42,9.42,0,0,1-6,1.75,14.11,14.11,0,0,1-3.88-.51A5.83,5.83,0,0,1,82,20.79,4.29,4.29,0,0,1,81.8,19.37Z"/><path id="Path_31" data-name="Path 31" class="cls-1" d="M104.5,3.19q3.28-3,8.88-3t8.88,3a11.93,11.93,0,0,1,0,16.46q-3.3,3-8.88,3t-8.88-3A11.91,11.91,0,0,1,104.5,3.19Zm3.68,15.51a6.36,6.36,0,0,0,8.88,1.5,6.28,6.28,0,0,0,1.5-1.5,14.78,14.78,0,0,0,0-14.57,6.37,6.37,0,0,0-10.38,0A14.88,14.88,0,0,0,108.18,18.7Z"/><path id="Path_32" data-name="Path 32" class="cls-1" d="M152.37.9h-.53a1.63,1.63,0,0,0-1.11.41,1.45,1.45,0,0,0-.49,1V14.42a7.86,7.86,0,0,1-2.39,6,9.19,9.19,0,0,1-6.52,2.23q-4.89,0-7.49-2.18a7.46,7.46,0,0,1-2.6-6.05v-12a1.5,1.5,0,0,0-.84-1.36,1.69,1.69,0,0,0-.8-.19h-.5V.59H138V.9h-.49a1.69,1.69,0,0,0-1.15.42,1.54,1.54,0,0,0-.5,1.07V14.2a7.84,7.84,0,0,0,1.61,5.2,5.49,5.49,0,0,0,4.43,1.92,5.69,5.69,0,0,0,4.45-1.81,7.1,7.1,0,0,0,1.67-4.9V2.39a1.48,1.48,0,0,0-.83-1.3,1.85,1.85,0,0,0-.8-.19h-.5V.6h6.46Z"/><path id="Path_33" data-name="Path 33" class="cls-1" d="M164.28,2h-1.42V20a2,2,0,0,0,.6,1.37,1.89,1.89,0,0,0,1.38.58h.4v.31h-9.41v-.31h.4a1.89,1.89,0,0,0,1.7-1,2.18,2.18,0,0,0,.28-1V2.85a2,2,0,0,0-.6-1.38A1.88,1.88,0,0,0,156.23.9h-.4V.59h10.62a9.3,9.3,0,0,1,5.07,1.3A4.72,4.72,0,0,1,173.2,3.7a6.32,6.32,0,0,1,.61,3,5.9,5.9,0,0,1-1.3,3.6,5.08,5.08,0,0,1-3.77,2A6.11,6.11,0,0,1,171.9,15q3.33,5.36,4.95,6.38a3.92,3.92,0,0,0,2,.52v.31h-3a12,12,0,0,1-4.48-.71,5.57,5.57,0,0,1-2.8-2.51Q168,18,166,13.73c-.58-1.25-1.28-2-2.1-2.07v-.31h1a3.91,3.91,0,0,0,2.46-.83,4.38,4.38,0,0,0,1.43-2.73,4.91,4.91,0,0,0,.13-1,5.38,5.38,0,0,0-1-3.66A3.48,3.48,0,0,0,165.22,2Z"/><path id="Path_34" data-name="Path 34" class="cls-1" d="M192.34,22.66q-6,0-9.37-3a11.71,11.71,0,0,1,0-16.48q3.38-3,9.25-3a16.42,16.42,0,0,1,7.7,1.67L200,7.15h-.25q-1.57-5.7-7.2-5.69a7,7,0,0,0-5.77,2.64,11.2,11.2,0,0,0-2.12,7.23,11.81,11.81,0,0,0,2,7.27,6.77,6.77,0,0,0,5.49,2.78,7.69,7.69,0,0,0,5.48-1.79q1.92-1.86,2.66-6.38h.25l.31,5.32Q198.32,22.69,192.34,22.66Z"/><path id="Path_35" data-name="Path 35" class="cls-1" d="M205.46,21.94a1.89,1.89,0,0,0,1.38-.58,2,2,0,0,0,.6-1.37V2.76A1.76,1.76,0,0,0,207,1.58,2.25,2.25,0,0,0,205.46.9h-.4V.59h11.85a11.17,11.17,0,0,0,2.51-.23c.4-.09.81-.2,1.2-.33V5.45l-.31,0V5.07a2.86,2.86,0,0,0-1.42-2.72,3.23,3.23,0,0,0-1.61-.43h-5.2v9h4.09a2.6,2.6,0,0,0,1.88-.79,2.56,2.56,0,0,0,.74-1.87V8h.31v7.15h-.31v-.25a2.55,2.55,0,0,0-2.46-2.66h-4.25v8.69h4a5.68,5.68,0,0,0,3.79-1.3,7.64,7.64,0,0,0,2.28-3.68h.31l-1.43,6.31h-16v-.31Z"/></g><g id="text"><path id="Path_36" data-name="Path 36" class="cls-1" d="M58.69,36.57H55.25v2.82h3.08v.91H55.25v2.91h3.44v.91H54.14V35.66h4.55Z"/><path id="Path_37" data-name="Path 37" class="cls-1" d="M61.47,35.67v7.55h3v.9H60.36V35.67Z"/><path id="Path_38" data-name="Path 38" class="cls-1" d="M70.15,36.57H66.7v2.82h3.09v.91H66.7v2.91h3.45v.91H65.6V35.66h4.55Z"/><path id="Path_39" data-name="Path 39" class="cls-1" d="M77.64,35.67h1.17l-3.19,8.45H74.34l-3.19-8.45h1.18L75,43Z"/><path id="Path_40" data-name="Path 40" class="cls-1" d="M85,42.25H81.33l-.68,1.88H79.48l3.06-8.4h1.27l3,8.4H85.69Zm-1.84-5.17-1.53,4.26H84.7Z"/><path id="Path_41" data-name="Path 41" class="cls-1" d="M87.67,35.67h5.72v.9h-2.3v7.55H90V36.57H87.68Z"/><path id="Path_42" data-name="Path 42" class="cls-1" d="M99.3,36.57H95.85v2.82h3.08v.91H95.85v2.91H99.3v.91H94.75V35.66H99.3Z"/><path id="Path_43" data-name="Path 43" class="cls-1" d="M103.5,35.67h1.23L106.82,40l2.08-4.28h1.23l-2.76,5.26v3.19h-1.1V40.93Z"/><path id="Path_44" data-name="Path 44" class="cls-1" d="M115.12,44.21a4.32,4.32,0,1,1,4.24-4.39v.07a4.16,4.16,0,0,1-4,4.31Zm0-1A3.37,3.37,0,1,0,112,39.64c0,.08,0,.16,0,.25a3.09,3.09,0,0,0,2.8,3.35Z"/><path id="Path_45" data-name="Path 45" class="cls-1" d="M120.79,35.67h1.1V41a1.93,1.93,0,0,0,1.62,2.2,2.43,2.43,0,0,0,.47,0c1.25,0,2.07-.67,2.07-2.22V35.67h1.1V41a3.18,3.18,0,0,1-6.36.12V35.67Z"/><path id="Path_46" data-name="Path 46" class="cls-1" d="M131.73,35.67c2,0,2.93,1.1,2.93,2.48a2.38,2.38,0,0,1-2,2.43l2.12,3.54h-1.32l-2-3.46H130.1v3.46H129V35.67Zm0,.91H130.1v3.2h1.63c1.25,0,1.79-.68,1.79-1.63s-.53-1.58-1.79-1.58Z"/><path id="Path_47" data-name="Path 47" class="cls-1" d="M142.29,44.21c-1.7,0-2.9-1-2.92-2.34h1.17a1.57,1.57,0,0,0,1.71,1.41h0c1.07,0,1.7-.6,1.7-1.4,0-2.28-4.57-.83-4.57-4,0-1.39,1.13-2.34,2.8-2.34a2.53,2.53,0,0,1,2.8,2.17h-1.21a1.53,1.53,0,0,0-1.64-1.22c-.91,0-1.63.44-1.63,1.35,0,2.19,4.56.83,4.56,4a2.53,2.53,0,0,1-2.65,2.4Z"/><path id="Path_48" data-name="Path 48" class="cls-1" d="M146.2,35.67h5.73v.9h-2.3v7.55h-1.1V36.57H146.2Z"/><path id="Path_49" data-name="Path 49" class="cls-1" d="M152.58,35.67h1.23L155.89,40,158,35.67h1.22l-2.75,5.26v3.19h-1.1V40.93Z"/><path id="Path_50" data-name="Path 50" class="cls-1" d="M161.47,35.67v7.55h3v.9h-4.06V35.67Z"/><path id="Path_51" data-name="Path 51" class="cls-1" d="M170.15,36.57h-3.44v2.82h3.08v.91h-3.08v2.91h3.44v.91h-4.54V35.66h4.54Z"/></g></g></g></svg>