<svg xmlns="http://www.w3.org/2000/svg" viewBox="0 0 222.51 197.77"><defs><style>.cls-1{fill:#fff;}</style></defs><g id="Layer_2" data-name="Layer 2"><g id="logo_svg" data-name="logo svg"><g id="symbol"><path id="Path_27" data-name="Path 27" class="cls-1" d="M12.22,155.39v18.16a2,2,0,0,0,2,1.92h.38l0,.31H5.19v-.31h.4a1.9,1.9,0,0,0,1.35-.56,2,2,0,0,0,.63-1.33V155.39H3.4a3,3,0,0,0-3.1,2.84c0,.1,0,.21,0,.31v.37H0v-5.38a10.07,10.07,0,0,0,3.65.56H16.12a13.31,13.31,0,0,0,2.09-.19,7.7,7.7,0,0,0,1.56-.37v5.38h-.31v-.37A2.87,2.87,0,0,0,18,155.82a3.37,3.37,0,0,0-1.64-.43Z"/><path id="Path_28" data-name="Path 28" class="cls-1" d="M38.08,175.47a1.75,1.75,0,0,0,1.24-.4,2.28,2.28,0,0,0,.74-1.52v-7.89H30v7.86a1.82,1.82,0,0,0,.59,1.38,1.9,1.9,0,0,0,1.39.57h.37l0,.31H23v-.31h.4a1.88,1.88,0,0,0,1.38-.57,2,2,0,0,0,.6-1.38V156.38a2,2,0,0,0-.6-1.38,1.88,1.88,0,0,0-1.38-.57H23v-.31h9.41l0,.31H32a1.9,1.9,0,0,0-1.39.57,1.86,1.86,0,0,0-.59,1.38v8h10v-8a2,2,0,0,0-.6-1.38,1.88,1.88,0,0,0-1.38-.57h-.4v-.31h9.41v.31h-.4a1.92,1.92,0,0,0-1.4.57,1.82,1.82,0,0,0-.58,1.38v17.14a1.81,1.81,0,0,0,.58,1.37,1.92,1.92,0,0,0,1.4.57h.4v.31H37.68v-.31Z"/><path id="Path_29" data-name="Path 29" class="cls-1" d="M51.6,175.47A1.88,1.88,0,0,0,53,174.9a2.05,2.05,0,0,0,.6-1.38V156.29a1.72,1.72,0,0,0-.47-1.18,2.23,2.23,0,0,0-1.51-.68h-.4v-.31H63.05a11,11,0,0,0,2.5-.23c.41-.09.81-.2,1.21-.33V159l-.31,0v-.35A2.88,2.88,0,0,0,65,155.88a3.29,3.29,0,0,0-1.61-.43h-5.2v9H62.3a2.64,2.64,0,0,0,1.89-.79,2.56,2.56,0,0,0,.74-1.87v-.28h.31v7.15h-.31v-.25a2.56,2.56,0,0,0-2.46-2.66H58.22v8.69h4.05a5.63,5.63,0,0,0,3.79-1.3,7.62,7.62,0,0,0,2.27-3.68h.31l-1.42,6.31h-16v-.31Z"/><path id="Path_30" data-name="Path 30" class="cls-1" d="M81.8,172.9a7.13,7.13,0,0,1,1-3.8H83a3.89,3.89,0,0,0,0,.49,5.23,5.23,0,0,0,1.54,3.73,5.54,5.54,0,0,0,4.19,1.59,4.81,4.81,0,0,0,3.23-1,3.15,3.15,0,0,0,1.16-2.5,2.48,2.48,0,0,0-.57-1.61,8.24,8.24,0,0,0-1.9-1.58l-5.38-3.56a5.83,5.83,0,0,1-3-4.95,3.18,3.18,0,0,1,.06-.62,5.54,5.54,0,0,1,1.9-3.93,6.76,6.76,0,0,1,4.59-1.48A34.92,34.92,0,0,1,93,154h2l-.4,4.54h-.31A3.19,3.19,0,0,0,93.08,156a4.82,4.82,0,0,0-3.17-1,4,4,0,0,0-3.5,1.48,2.34,2.34,0,0,0-.56,1.42,2.42,2.42,0,0,0,.28,1.21A5.32,5.32,0,0,0,88,160.83l5.9,3.84a5.5,5.5,0,0,1,2.79,4.77,6,6,0,0,1-2.24,5,9.42,9.42,0,0,1-6,1.75,14.11,14.11,0,0,1-3.88-.51A5.83,5.83,0,0,1,82,174.32,4.25,4.25,0,0,1,81.8,172.9Z"/><path id="Path_31" data-name="Path 31" class="cls-1" d="M104.5,156.72q3.28-3,8.88-3t8.88,3a11.93,11.93,0,0,1,0,16.46q-3.3,3-8.88,3t-8.88-3A11.91,11.91,0,0,1,104.5,156.72Zm3.68,15.52a6.39,6.39,0,0,0,10.38,0,14.8,14.8,0,0,0,0-14.58,6.37,6.37,0,0,0-10.38,0A14.9,14.9,0,0,0,108.18,172.24Z"/><path id="Path_32" data-name="Path 32" class="cls-1" d="M152.37,154.43h-.53a1.59,1.59,0,0,0-1.11.42,1.41,1.41,0,0,0-.49,1V168a7.84,7.84,0,0,1-2.39,6,9.19,9.19,0,0,1-6.52,2.23q-4.89,0-7.49-2.18a7.46,7.46,0,0,1-2.6-6.05V156a1.5,1.5,0,0,0-.84-1.36,1.69,1.69,0,0,0-.8-.19h-.5v-.31H138v.31h-.49a1.69,1.69,0,0,0-1.15.42,1.54,1.54,0,0,0-.5,1.07v11.82a7.82,7.82,0,0,0,1.61,5.19,5.46,5.46,0,0,0,4.43,1.92,5.69,5.69,0,0,0,4.45-1.81,7.1,7.1,0,0,0,1.67-4.9V155.92a1.49,1.49,0,0,0-.83-1.3,1.7,1.7,0,0,0-.8-.18h-.5v-.31h6.46Z"/><path id="Path_33" data-name="Path 33" class="cls-1" d="M164.28,155.48h-1.42v18a2,2,0,0,0,.6,1.38,1.92,1.92,0,0,0,1.38.57h.4v.31h-9.41v-.31h.4a1.89,1.89,0,0,0,1.7-1,2.18,2.18,0,0,0,.28-1V156.38a2,2,0,0,0-.6-1.38,1.88,1.88,0,0,0-1.38-.57h-.4v-.31h10.62a9.3,9.3,0,0,1,5.07,1.3,4.72,4.72,0,0,1,1.68,1.81,6.34,6.34,0,0,1,.61,3,5.9,5.9,0,0,1-1.3,3.6,5.08,5.08,0,0,1-3.77,2,6.15,6.15,0,0,1,3.16,2.72q3.33,5.35,4.95,6.38a3.92,3.92,0,0,0,2,.52v.31h-3a12,12,0,0,1-4.48-.71,5.59,5.59,0,0,1-2.8-2.5c-.39-.69-1.24-2.45-2.56-5.3q-.87-1.87-2.1-2.07v-.31h1a3.91,3.91,0,0,0,2.46-.83,4.38,4.38,0,0,0,1.43-2.73,4.91,4.91,0,0,0,.13-1,5.38,5.38,0,0,0-1-3.66,3.48,3.48,0,0,0-2.63-1.16Z"/><path id="Path_34" data-name="Path 34" class="cls-1" d="M192.34,176.19q-6,0-9.37-3a11.71,11.71,0,0,1,0-16.48q3.38-3,9.25-3a16.54,16.54,0,0,1,7.7,1.67l.06,5.32h-.25q-1.57-5.7-7.2-5.69a7,7,0,0,0-5.77,2.64,11.22,11.22,0,0,0-2.12,7.23,11.81,11.81,0,0,0,2,7.27,6.77,6.77,0,0,0,5.49,2.78,7.64,7.64,0,0,0,5.48-1.79q1.92-1.86,2.66-6.38h.25l.31,5.33Q198.32,176.21,192.34,176.19Z"/><path id="Path_35" data-name="Path 35" class="cls-1" d="M205.46,175.47a1.88,1.88,0,0,0,1.38-.57,2,2,0,0,0,.6-1.38V156.29a1.76,1.76,0,0,0-.46-1.18,2.25,2.25,0,0,0-1.52-.68h-.4v-.31h11.85a11.17,11.17,0,0,0,2.51-.23c.4-.09.81-.2,1.2-.33V159l-.31,0v-.35a2.86,2.86,0,0,0-1.42-2.72,3.23,3.23,0,0,0-1.61-.43h-5.2v9h4.09a2.6,2.6,0,0,0,1.88-.79,2.56,2.56,0,0,0,.74-1.87v-.28h.31v7.15h-.31v-.25a2.55,2.55,0,0,0-2.46-2.66h-4.25v8.69h4a5.63,5.63,0,0,0,3.79-1.3,7.64,7.64,0,0,0,2.28-3.68h.31l-1.43,6.31h-16v-.31Z"/></g><g id="text"><path id="Path_36" data-name="Path 36" class="cls-1" d="M58.69,190.1H55.25v2.82h3.08v.91H55.25v2.91h3.44v.91H54.14v-8.46h4.55Z"/><path id="Path_37" data-name="Path 37" class="cls-1" d="M61.47,189.2v7.55h3v.9H60.36V189.2Z"/><path id="Path_38" data-name="Path 38" class="cls-1" d="M70.15,190.1H66.7v2.82h3.09v.91H66.7v2.91h3.45v.91H65.6v-8.46h4.55Z"/><path id="Path_39" data-name="Path 39" class="cls-1" d="M77.64,189.2h1.17l-3.19,8.45H74.34l-3.19-8.45h1.18L75,196.49Z"/><path id="Path_40" data-name="Path 40" class="cls-1" d="M85,195.78H81.33l-.68,1.88H79.48l3.06-8.4h1.27l3,8.4H85.69Zm-1.84-5.17-1.53,4.26H84.7Z"/><path id="Path_41" data-name="Path 41" class="cls-1" d="M87.67,189.2h5.72v.9h-2.3v7.55H90V190.1H87.68Z"/><path id="Path_42" data-name="Path 42" class="cls-1" d="M99.3,190.1H95.85v2.82h3.08v.91H95.85v2.91H99.3v.91H94.75v-8.46H99.3Z"/><path id="Path_43" data-name="Path 43" class="cls-1" d="M103.5,189.2h1.23l2.09,4.28,2.08-4.28h1.23l-2.76,5.26v3.19h-1.1v-3.19Z"/><path id="Path_44" data-name="Path 44" class="cls-1" d="M115.12,197.74a4.32,4.32,0,1,1,4.24-4.39v.07a4.16,4.16,0,0,1-4,4.31Zm0-1a3.37,3.37,0,1,0-3.11-3.61c0,.08,0,.17,0,.25a3.09,3.09,0,0,0,2.8,3.35Z"/><path id="Path_45" data-name="Path 45" class="cls-1" d="M120.79,189.2h1.1v5.35a1.93,1.93,0,0,0,1.62,2.2,1.83,1.83,0,0,0,.47,0c1.25,0,2.07-.67,2.07-2.22V189.2h1.1v5.33a3.18,3.18,0,0,1-6.36.12V189.2Z"/><path id="Path_46" data-name="Path 46" class="cls-1" d="M131.73,189.2c2,0,2.93,1.1,2.93,2.49a2.36,2.36,0,0,1-2,2.42l2.12,3.54h-1.32l-2-3.46H130.1v3.46H129V189.2Zm0,.91H130.1v3.2h1.63c1.25,0,1.79-.68,1.79-1.63s-.53-1.57-1.79-1.57Z"/><path id="Path_47" data-name="Path 47" class="cls-1" d="M142.29,197.74c-1.7,0-2.9-1-2.92-2.34h1.17a1.57,1.57,0,0,0,1.71,1.41h0c1.07,0,1.7-.6,1.7-1.4,0-2.28-4.57-.83-4.57-4,0-1.39,1.13-2.34,2.8-2.34a2.53,2.53,0,0,1,2.8,2.17h-1.21a1.53,1.53,0,0,0-1.64-1.22c-.91,0-1.63.45-1.63,1.35,0,2.19,4.56.83,4.56,4a2.53,2.53,0,0,1-2.65,2.4Z"/><path id="Path_48" data-name="Path 48" class="cls-1" d="M146.2,189.2h5.73v.9h-2.3v7.55h-1.1V190.1H146.2Z"/><path id="Path_49" data-name="Path 49" class="cls-1" d="M152.58,189.2h1.23l2.08,4.28L158,189.2h1.22l-2.75,5.26v3.19h-1.1v-3.19Z"/><path id="Path_50" data-name="Path 50" class="cls-1" d="M161.47,189.2v7.55h3v.9h-4.06V189.2Z"/><path id="Path_51" data-name="Path 51" class="cls-1" d="M170.15,190.1h-3.44v2.82h3.08v.91h-3.08v2.91h3.44v.91h-4.54v-8.46h4.54Z"/></g><path id="Path_52" data-name="Path 52" class="cls-1" d="M129.62,45.43c-.31,0-3.07-.25-3-.23a48.14,48.14,0,0,0-8.82.3V16.78c12,2.27,15.85,10.94,16.39,12.57.62,1.87.62,12.47.62,12.47h1.25V15.93L135,15.77s-.31,4.06-1.56,5-1.56.62-7.18-3.12a23.21,23.21,0,0,0-8.43-3.11V8.12a3.91,3.91,0,0,1,3.91-3.91h27c3.43,0,4.06,4.06,4.06,4.06l2,8.9h1.28C153.25,4.37,154.25,0,154.25,0h-1C151.88,2,149,2.18,149,2.18H73.88A5.24,5.24,0,0,1,69.61,0h-1s1,4.37-1.8,17.17H68.1l2-8.9s.62-4.06,4.06-4.06h27a3.92,3.92,0,0,1,3.91,3.91v6.61C92.75,17.88,83.2,29.52,83.2,42.31a23.91,23.91,0,0,0,6.19,16.53,32.32,32.32,0,0,0-9,24c0,16.61,13.39,31.59,34.3,31.59,18.41,0,31.52-13.1,31.52-31.52,0-14.67-15.29-22.47-15.29-22.47s-6.11-2.9-13.11-6.32v-8a44.84,44.84,0,0,1,6.55-.41A47.43,47.43,0,0,1,143.57,50a4.68,4.68,0,0,1,2.29,6.19,5.14,5.14,0,0,1-.46.78,5.93,5.93,0,1,0,10.67,3.56C156.06,54,147.92,47.25,129.62,45.43ZM105,17.31V47.68c-2.13-1.11-4-2.1-5.31-2.88a16.14,16.14,0,0,1-7.4-8.9,10,10,0,0,1-.22-5.33c1.27-5.5,6.09-11,12.93-13.26ZM130.93,81c10,4.68,9,10.61,9,10.61,0,19.66-25.28,20.6-25.28,20.6-18.42,0-33.27-11.55-33.27-29.41,0-10.38,3.37-18,8.37-23.5a20.64,20.64,0,0,0,4.92,3.9L105,68.34V90.18a3.91,3.91,0,0,1-3.91,3.91H93v1.56h36.88V94.09h-8.13a3.91,3.91,0,0,1-3.91-3.9h0V74.66c5.1,2.51,9.93,4.85,13.11,6.34Z"/></g></g></svg>